<?xml version="1.0" encoding="utf-8"?>
<svg version="1.1" xmlns="http://www.w3.org/2000/svg" width="512" height="512" xmlns:bx="https://boxy-svg.com" viewBox="0 0 512 512"><defs><bx:export><bx:file format="svg"/></bx:export></defs><path d="M0 0 C5.68638011 3.82919288 10.51278869 8.12136359 15.33185512 12.98438638 C16.13709894 13.78495024 16.94234276 14.58551409 17.77198792 15.41033745 C20.45047837 18.07692538 23.11819244 20.75403108 25.78600246 23.43130106 C27.71040666 25.35328687 29.63703849 27.27303432 31.56354457 29.192913 C36.24033886 33.85640805 40.90903613 38.52792756 45.57482473 43.20243108 C49.36768863 47.00208453 53.16348807 50.79878219 56.96137744 54.59341234 C57.50297394 55.13454914 58.04457045 55.67568595 58.60257896 56.23322083 C59.70298755 57.3326702 60.80340284 58.43211285 61.90382477 59.53154887 C72.20728481 69.8264666 82.50155105 80.13053801 92.79266753 90.43779273 C101.617276 99.27581093 110.44973092 108.10592355 119.28795558 116.93032449 C129.56274068 127.18904639 139.83263065 137.45262831 150.09478283 147.72398853 C151.18945808 148.81961939 152.28413957 149.915244 153.37882739 151.01086229 C153.91737527 151.54987299 154.45592314 152.08888369 155.01079065 152.64422805 C158.80087407 156.43689857 162.59442088 160.22608338 166.38932925 164.01392549 C171.01423738 168.63041055 175.633743 173.2522217 180.24645535 177.88089382 C182.59867473 180.24098388 184.95396203 182.5977735 187.31428462 184.94977564 C189.87458714 187.50188327 192.42547429 190.06304787 194.9741891 192.62672037 C195.71902453 193.36486363 196.46385995 194.10300688 197.23126614 194.86351812 C202.90049353 200.5974775 207.42978165 206.16198149 208.148063 214.4940452 C208.05522674 220.0951667 206.16484205 225.30310143 202.3746255 229.4784202 C196.85461798 234.24187847 192.7088494 235.29228029 185.569938 235.1034202 C172.806657 234.00942468 163.33105421 220.50989652 154.835563 211.8690452 C150.07560473 215.82421058 145.64027579 219.96898372 141.335563 224.41201395 C140.10556388 225.66442846 138.87507882 226.9163659 137.64415675 228.16787332 C135.74869392 230.10005862 133.85645333 232.03498956 131.97277004 233.97866434 C121.06078829 245.22004812 109.46622921 255.57892614 95.398063 262.7440452 C94.70051906 263.1057078 94.00297511 263.46737039 93.28429347 263.83999246 C66.39804299 277.30730142 34.19420443 278.06202453 5.90196925 268.7987327 C-0.4076142 266.538913 -6.26027566 263.43356534 -12.07434911 260.12099832 C-12.81564061 259.70011942 -13.55693211 259.27924051 -14.320687 258.8456077 C-14.9684409 258.46485086 -15.61619481 258.08409403 -16.28357762 257.6917991 C-18.43306671 256.60186591 -18.43306671 256.60186591 -22.164437 256.8690452 C-24.1948455 258.31799314 -24.1948455 258.31799314 -26.12899083 260.37949747 C-27.29583913 261.54676874 -27.29583913 261.54676874 -28.48626012 262.73762125 C-29.75262051 264.03497957 -29.75262051 264.03497957 -31.04456395 265.35854715 C-32.4206252 266.74357478 -33.796687 268.12860186 -35.17276961 269.51360828 C-36.65121066 271.00554154 -38.12457647 272.50232691 -39.59662122 274.00057024 C-42.66695994 277.12498249 -45.75248264 280.23409592 -48.84050816 283.3410148 C-55.95461756 290.50332775 -63.04864859 297.68542184 -70.14243382 304.86785501 C-76.63616983 311.442374 -83.13409965 318.01259676 -89.64843404 324.56671488 C-92.71476945 327.65293564 -95.77109474 330.74863556 -98.82003623 333.85203701 C-100.26418765 335.31890281 -101.71289969 336.78107599 -103.16376561 338.24129862 C-104.92889763 340.01786514 -106.68686406 341.80159315 -108.43602818 343.59388345 C-113.5727442 348.73244146 -117.65573443 352.24504566 -125.04334325 353.2674827 C-133.02473973 353.19777618 -138.25095305 351.46288136 -144.164437 345.8690452 C-148.07720436 340.47212469 -147.82891338 334.28081084 -147.164437 327.8690452 C-145.86093505 323.803494 -143.98800814 321.23739522 -141.09670323 318.12090677 C-140.28864295 317.24856016 -139.48058266 316.37621355 -138.64803571 315.47743219 C-134.90152252 311.54267565 -131.09885507 307.67200041 -127.24817723 303.83926004 C-126.40805592 302.99899271 -125.56793462 302.15872537 -124.70235509 301.29299539 C-121.96161407 298.55294364 -119.21736249 295.81643768 -116.47303075 293.0799827 C-114.55725316 291.16663349 -112.64223436 289.25252552 -110.7271964 287.33843607 C-106.2245959 282.83892451 -101.71945605 278.34196467 -97.21336246 273.84595162 C-92.07702936 268.72085602 -86.9435881 263.59286796 -81.81036907 258.46465367 C-71.26490434 247.92959803 -60.71587418 237.39811935 -50.164437 226.8690452 C-51.33111229 223.90704349 -52.50402965 221.11043993 -54.117562 218.36513895 C-63.39845985 202.08559762 -68.00590089 185.5364253 -69.164437 166.8690452 C-69.22373387 165.96283426 -69.28303075 165.05662332 -69.3441245 164.12295145 C-70.26525722 133.77674563 -57.6498863 104.8019885 -37.23059911 82.78377908 C-32.24365761 77.58917206 -27.11230593 72.54115085 -21.976937 67.4940452 C-20.43651721 65.96871643 -18.89679905 64.44267877 -17.35779637 62.9159202 C-13.6347015 59.22544119 -9.90313351 55.54371448 -6.164437 51.8690452 C-7.09881167 50.76477346 -8.03525749 49.66225406 -8.97254246 48.56045145 C-9.49379704 47.94629373 -10.01505162 47.33213602 -10.55210179 46.69936746 C-13.4517556 43.40768164 -16.64913947 40.41431289 -19.84021825 37.4081077 C-25.35782501 32.0465258 -29.24124292 26.08349913 -29.476937 18.1815452 C-29.40120404 11.69691053 -27.41889308 7.18612506 -22.914437 2.5565452 C-15.65507565 -1.8980629 -8.0437105 -4.20297428 0 0 Z " transform="translate(147.16443699598312,159.13095480203629)" style="fill: rgb(86, 255, 0);"/><path d="M0 0 C5.06939657 3.37959771 8.6070786 5.8024422 10.625 11.75 C11.25180858 18.96809261 11.40994411 25.20098322 6.77439976 31.10832787 C6.0427457 31.89696535 5.31109163 32.68560284 4.55726624 33.49813843 C3.34517581 34.80665834 3.34517581 34.80665834 2.10859871 36.14161301 C-1.63791447 40.07636955 -5.44058192 43.94704479 -9.29125977 47.77978516 C-10.13138107 48.62005249 -10.97150238 49.46031982 -11.83708191 50.3260498 C-14.57782292 53.06610155 -17.32207451 55.80260751 -20.06640625 58.5390625 C-21.98218384 60.45241171 -23.89720264 62.36651968 -25.8122406 64.28060913 C-30.3148411 68.78012069 -34.81998095 73.27708053 -39.32607454 77.77309358 C-44.46240763 82.89818917 -49.59584889 88.02617724 -54.72906792 93.15439153 C-65.27453265 103.68944716 -75.82356281 114.22092585 -86.375 124.75 C-85.20832471 127.71200171 -84.03540735 130.50860527 -82.421875 133.25390625 C-73.14097714 149.53344757 -68.5335361 166.08261989 -67.375 184.75 C-67.31570313 185.65621094 -67.25640625 186.56242188 -67.1953125 187.49609375 C-66.27417978 217.84229957 -78.8895507 246.8170567 -99.30883789 268.83526611 C-104.29577938 274.02987314 -109.42713106 279.07789435 -114.5625 284.125 C-116.10291978 285.65032877 -117.64263795 287.17636643 -119.18164062 288.703125 C-122.9047355 292.393604 -126.63630349 296.07533072 -130.375 299.75 C-129.44062533 300.85427174 -128.5041795 301.95679114 -127.56689453 303.05859375 C-127.04563995 303.67275146 -126.52438538 304.28690918 -125.98733521 304.91967773 C-123.08768139 308.21136356 -119.89029753 311.2047323 -116.69921875 314.2109375 C-111.18161198 319.5725194 -107.29819407 325.53554607 -107.0625 333.4375 C-107.13823296 339.92213467 -109.12054392 344.43292014 -113.625 349.0625 C-119.58472836 352.71960604 -124.66965116 354.53777467 -131.73313981 353.4343639 C-139.85484625 351.33046653 -146.14452324 344.41366353 -151.87129211 338.63465881 C-152.67653594 337.83409496 -153.48177976 337.03353111 -154.31142491 336.20870775 C-156.98991537 333.54211982 -159.65762944 330.86501412 -162.32543945 328.18774414 C-164.24984366 326.26575832 -166.17647548 324.34601088 -168.10298157 322.4261322 C-172.77977585 317.76263715 -177.44847312 313.09111764 -182.11426172 308.41661412 C-185.90712562 304.61696066 -189.70292506 300.82026301 -193.50081444 297.02563286 C-194.04241094 296.48449606 -194.58400744 295.94335925 -195.14201596 295.38582436 C-196.24242455 294.286375 -197.34283984 293.18693235 -198.44326176 292.08749633 C-208.74672181 281.79257859 -219.04098804 271.48850719 -229.33210453 261.18125247 C-238.156713 252.34323427 -246.98916791 243.51312165 -255.82739258 234.6887207 C-266.10217767 224.42999881 -276.37206765 214.16641688 -286.63421983 203.89505666 C-287.72889507 202.79942581 -288.82357657 201.7038012 -289.91826439 200.60818291 C-290.45681226 200.06917221 -290.99536014 199.5301615 -291.55022765 198.97481715 C-295.34031107 195.18214663 -299.13385788 191.39296182 -302.92876625 187.60511971 C-307.55367438 182.98863464 -312.17318 178.36682349 -316.78589235 173.73815138 C-319.13811172 171.37806132 -321.49339903 169.0212717 -323.85372162 166.66926956 C-326.41402414 164.11716193 -328.96491129 161.55599733 -331.5136261 158.99232483 C-332.25846152 158.25418157 -333.00329694 157.51603831 -333.77070314 156.75552708 C-339.43993052 151.0215677 -343.96921865 145.45706371 -344.6875 137.125 C-344.59466373 131.5238785 -342.70427905 126.31594377 -338.9140625 122.140625 C-333.39405498 117.37716673 -329.2482864 116.32676491 -322.109375 116.515625 C-309.346094 117.60962051 -299.87049121 131.10914868 -291.375 139.75 C-286.61504173 135.79483462 -282.17971278 131.65006148 -277.875 127.20703125 C-276.64500087 125.95461673 -275.41451582 124.7026793 -274.18359375 123.45117188 C-272.28813092 121.51898658 -270.39589033 119.58405564 -268.51220703 117.64038086 C-257.60022529 106.39899708 -246.0056662 96.04011906 -231.9375 88.875 C-230.89118408 88.3325061 -230.89118408 88.3325061 -229.82373047 87.77905273 C-202.93747999 74.31174377 -170.73364143 73.55702067 -142.44140625 82.8203125 C-136.13182279 85.0801322 -130.27916133 88.18547986 -124.46508789 91.49804688 C-123.72379639 91.91892578 -122.98250488 92.33980469 -122.21875 92.7734375 C-121.57099609 93.15419434 -120.92324219 93.53495117 -120.25585938 93.92724609 C-118.10637028 95.01717928 -118.10637028 95.01717928 -114.375 94.75 C-112.34459149 93.30105206 -112.34459149 93.30105206 -110.41044617 91.23954773 C-109.6325473 90.46136688 -108.85464844 89.68318604 -108.05317688 88.88142395 C-107.20893661 88.0165184 -106.36469635 87.15161285 -105.49487305 86.26049805 C-104.1188118 84.87547042 -102.74274999 83.49044334 -101.36666739 82.10543692 C-99.88822633 80.61350366 -98.41486052 79.11671829 -96.94281578 77.61847496 C-93.87247706 74.49406271 -90.78695436 71.38494928 -87.69892883 68.2780304 C-80.58481944 61.11571745 -73.49078841 53.93362336 -66.39700317 46.75119019 C-59.90326717 40.1766712 -53.40533735 33.60644844 -46.89100295 27.05233032 C-43.82466754 23.96610956 -40.76834225 20.87040964 -37.71940076 17.76700819 C-36.27524935 16.30014239 -34.82653731 14.83796921 -33.37567139 13.37774658 C-31.61053936 11.60118006 -29.85257294 9.81745205 -28.10340881 8.02516174 C-20.02427986 -0.05686433 -11.43325117 -4.23453747 0 0 Z " transform="translate(501.375,1.25)" style="fill: rgb(86, 255, 0);"/></svg>